HIERARCHY
ROOT Hips
{
	OFFSET 0.00000 0.00000 0.00000
	CHANNELS 6 Xposition Yposition Zposition Zrotation Yrotation Xrotation 
	JOINT LHipJoint
	{
		OFFSET 0 0 0
		CHANNELS 3 Zrotation Yrotation Xrotation
		JOINT LeftHip
		{
			OFFSET 1.76014 -1.80163 0.38499
			CHANNELS 3 Zrotation Yrotation Xrotation
			JOINT LeftKnee
			{
				OFFSET 2.46817 -6.78126 0.00000
				CHANNELS 3 Zrotation Yrotation Xrotation
				JOINT LeftAnkle
				{
					OFFSET 2.79348 -7.67503 0.00000
					CHANNELS 3 Zrotation Yrotation Xrotation
					JOINT LeftToe
					{
						OFFSET 0.09421 -0.25885 1.91403
						CHANNELS 3 Zrotation Yrotation Xrotation
						End Site
						{
							OFFSET 0.00000 -0.00000 0.97975
						}
					}
				}
			}
		}
	}
	JOINT RHipJoint
	{
		OFFSET 0 0 0
		CHANNELS 3 Zrotation Yrotation Xrotation
		JOINT RightHip
		{
			OFFSET -1.77926 -1.80163 0.38499
			CHANNELS 3 Zrotation Yrotation Xrotation
			JOINT RightKnee
			{
				OFFSET -2.51996 -6.92353 0.00000
				CHANNELS 3 Zrotation Yrotation Xrotation
				JOINT RightAnkle
				{
					OFFSET -2.76109 -7.58603 0.00000
					CHANNELS 3 Zrotation Yrotation Xrotation
					JOINT RightToe
					{
						OFFSET -0.08067 -0.22163 1.86812
						CHANNELS 3 Zrotation Yrotation Xrotation
						End Site
						{
							OFFSET -0.00000 -0.00000 0.95558
						}
					}
				}
			}
		}
	}
	JOINT lowerback
	{
		OFFSET 0 0 0
		CHANNELS 3 Zrotation Yrotation Xrotation
		JOINT Chest
		{
			OFFSET 0.05537 1.92033 -0.03713
			CHANNELS 3 Zrotation Yrotation Xrotation
			JOINT Chest2
			{
				OFFSET 0.04452 1.90073 0.10860
				CHANNELS 3 Zrotation Yrotation Xrotation
				JOINT lowerneck
				{
					OFFSET 0 0 0
					CHANNELS 3 Zrotation Yrotation Xrotation
					JOINT Neck
					{
						OFFSET 0.00903 1.74649 0.02074
						CHANNELS 3 Zrotation Yrotation Xrotation
						JOINT Head
						{
							OFFSET -0.08608 1.67844 -0.12081
							CHANNELS 3 Zrotation Yrotation Xrotation
							End Site
							{
								OFFSET -0.03521 1.83380 -0.05059
							}
						}
					}
				}
				JOINT LeftCollar
				{
					OFFSET 0 0 0
					CHANNELS 3 Zrotation Yrotation Xrotation
					JOINT LeftShoulder
					{
						OFFSET 3.28197 0.84325 -0.19106
CHANNELS 3 Zrotation Xrotation Yrotation
						JOINT LeftElbow
						{
OFFSET 0 -5.243180 -0.000000
CHANNELS 3 Zrotation Xrotation Yrotation
							JOINT LeftWrist
							{
OFFSET 0 -2.989990 0.000000
CHANNELS 3 Zrotation Xrotation Yrotation
								JOINT lhand
								{
									OFFSET 0 0 0
CHANNELS 3 Zrotation Xrotation Yrotation
									JOINT LFingers
									{
OFFSET 0 -0.726740 0.000000
CHANNELS 3 Zrotation Xrotation Yrotation
										End Site
										{
OFFSET 0 -0.585920 0.000000
										}
									}
								}
								JOINT LThumb
								{
OFFSET 0 0.000000 0.000000
CHANNELS 3 Zrotation Xrotation Yrotation
									End Site
									{
OFFSET 0 -0.594870 0.594870
									}
								}
							}
						}
					}
				}
				JOINT RightCollar
				{
					OFFSET 0 0 0
					CHANNELS 3 Zrotation Yrotation Xrotation
					JOINT RightShoulder
					{
						OFFSET -3.30963 0.78377 0.14264
CHANNELS 3 Zrotation Xrotation Yrotation
						JOINT RightElbow
						{
OFFSET 0 -5.370450 0.000000
CHANNELS 3 Zrotation Xrotation Yrotation
							JOINT RightWrist
							{
OFFSET 0 -2.927920 0.000000
CHANNELS 3 Zrotation Xrotation Yrotation
								JOINT rhand
								{
									OFFSET 0 0 0
CHANNELS 3 Zrotation Xrotation Yrotation
									JOINT RFingers
									{
OFFSET 0 -0.784500 0.000000
CHANNELS 3 Zrotation Xrotation Yrotation
										End Site
										{
OFFSET 0 -0.632480 0.000000
										}
									}
								}
								JOINT RThumb
								{
OFFSET 0 0.000000 0.000000
CHANNELS 3 Zrotation Xrotation Yrotation
									End Site
									{
OFFSET 0 -0.642140 0.642140
									}
								}
							}
						}
					}
				}
			}
		}
	}
}
MOTION
Frames: 12
Frame Time: 0.008333333333333333
0.617300 17.765000 -0.781200 0.108800 3.299800 36.106300 0.000000 0.000000 0.000000 -13.298300 -12.402500 -54.581700 2.214200 9.298600 26.734000 0.011400 -3.641500 -3.042200 0.675000 -5.253600 -14.633300 0.000000 0.000000 0.000000 15.291900 7.559900 -55.743100 -1.881500 -8.614800 24.597700 0.046600 -3.902000 -2.238400 -0.659600 5.194200 -14.463400 1.956500 -1.644200 6.411000 3.159700 -1.679800 -7.533000 2.603100 -0.812500 -11.684200 2.017600 -0.472000 -10.088300 -6.415300 -0.777300 -2.022700 -2.432600 -0.530100 1.064900 -0.000000 0.000000 0.000000 9.547200 -30.239200 -54.985000 17.020900 -26.885300 4.096800 0.999900 12.998800 -16.821100 0.000000 0.000000 0.000000 -7.125000 0.000000 0.000000 -24.779500 45.229600 0.149800 -0.000000 0.000000 0.000000 -13.387100 -24.346200 42.901700 -18.607700 -28.928300 -4.839600 0.071300 34.290100 -7.956000 0.000000 0.000000 0.000000 7.125000 0.000000 -0.000000 19.299800 22.123700 11.248000
0.612222 17.765353 -0.777937 0.147391 3.291120 36.348093 0.000000 0.000000 0.000000 -13.147582 -12.622283 -54.662348 2.187543 9.246186 26.568543 0.014194 -3.410368 -3.029561 0.677462 -5.262651 -14.659184 0.000000 0.000000 0.000000 15.217214 7.646556 -55.938843 -1.871068 -8.592184 24.527756 0.049300 -3.995696 -2.197554 -0.618682 5.032095 -14.000490 1.926414 -1.694651 6.444108 3.118911 -1.756306 -7.507746 2.588458 -0.849261 -11.673389 2.167919 -0.516098 -9.090604 -6.455988 -0.946387 -3.939665 -2.449529 -0.573189 0.270690 0.000000 0.000000 0.000000 9.424131 -30.216367 -54.528314 16.790442 -26.580693 3.993126 0.794742 13.495462 -16.905197 0.000000 0.000000 0.000000 -7.125000 0.000000 0.000000 -24.993155 45.281228 0.185272 0.000000 0.000000 0.000000 -13.270982 -24.697208 42.557616 -18.365252 -28.622327 -4.722908 0.216026 34.414407 -7.762165 0.000000 0.000000 0.000000 7.125000 0.000000 0.000000 19.426231 22.306683 11.243979
0.602612 17.754709 -0.780745 0.303289 3.256812 36.868095 0.000000 0.000000 0.000000 -13.134694 -12.835269 -55.162424 2.167653 9.206912 26.444810 0.011848 -3.332288 -2.885999 0.688512 -5.304635 -14.779503 0.000000 0.000000 0.000000 15.026399 7.683742 -56.630928 -1.893247 -8.640098 24.675990 0.044995 -3.845486 -2.262935 -0.469801 4.396255 -12.194324 1.765780 -1.734757 6.397373 3.023878 -1.838047 -7.668504 2.594158 -0.879100 -11.823109 2.410469 -0.499766 -7.946722 -6.559268 -1.041268 -5.908405 -2.514610 -0.578471 -0.553242 0.000000 0.000000 0.000000 9.541423 -29.827983 -54.571694 16.965080 -26.811648 4.071542 0.945752 13.383852 -16.697505 0.000000 0.000000 0.000000 -7.125000 0.000000 0.000000 -24.773658 45.110870 0.072324 0.000000 0.000000 0.000000 -13.173036 -24.818693 42.097889 -18.332626 -28.580936 -4.707310 0.698040 34.208183 -7.728978 0.000000 0.000000 0.000000 7.125000 0.000000 0.000000 19.764232 22.337614 11.449723
0.599222 17.766144 -0.773600 0.284629 3.249711 36.739706 0.000000 0.000000 0.000000 -13.097535 -12.843521 -54.848386 2.141130 9.154060 26.278497 0.013049 -3.238247 -2.888461 0.685643 -5.293885 -14.748646 0.000000 0.000000 0.000000 15.201319 7.554991 -56.414248 -1.868239 -8.585957 24.508594 0.043515 -3.761963 -2.109302 -0.606314 4.983691 -13.862152 1.863671 -1.726687 6.920058 2.948521 -1.805097 -7.591057 2.472343 -0.872346 -12.062355 2.317301 -0.518450 -6.967704 -6.305679 -1.133240 -7.669207 -2.415064 -0.583231 -1.282735 0.000000 0.000000 0.000000 9.661450 -29.559223 -55.060910 17.251915 -27.188669 4.201787 0.740702 13.371437 -16.845798 0.000000 0.000000 0.000000 -7.125000 0.000000 0.000000 -25.014412 45.220981 0.145631 0.000000 0.000000 0.000000 -13.344336 -24.904758 41.741882 -18.317277 -28.561560 -4.699954 0.502797 34.305881 -7.633372 0.000000 0.000000 0.000000 7.125000 0.000000 0.000000 19.642543 22.427900 11.326704
0.595028 17.768272 -0.774452 0.246205 3.322025 36.831097 0.000000 0.000000 0.000000 -12.955232 -12.925073 -54.883942 2.123790 9.119269 26.169207 0.013110 -3.197731 -2.869000 0.725489 -5.442514 -15.175189 0.000000 0.000000 0.000000 14.957756 7.924293 -56.266429 -1.843907 -8.533083 24.345248 0.055555 -4.234418 -2.282110 -0.569353 4.831966 -13.429926 1.887914 -1.700434 7.233361 2.903595 -1.760486 -7.531833 2.413394 -0.853483 -12.190560 2.628973 -0.598128 -5.816692 -6.203546 -1.321335 -9.334225 -2.450974 -0.648914 -2.033079 0.000000 0.000000 0.000000 9.634899 -29.549503 -55.451458 17.344255 -27.309427 4.244058 0.720881 13.443303 -17.057098 0.000000 0.000000 0.000000 -7.125000 0.000000 0.000000 -25.122761 45.409858 0.271613 0.000000 0.000000 0.000000 -13.465015 -25.095303 40.995507 -18.215331 -28.432065 -4.651321 0.433151 34.757974 -7.947645 0.000000 0.000000 0.000000 7.125000 0.000000 0.000000 19.550931 22.131807 11.409018
0.591859 17.763163 -0.784111 0.294743 3.383346 37.027737 0.000000 0.000000 0.000000 -12.871896 -13.078908 -55.117314 2.126578 9.124892 26.186903 0.010763 -3.192542 -2.759376 0.756599 -5.555256 -15.499344 0.000000 0.000000 0.000000 15.054980 7.769448 -56.615647 -1.854070 -8.555329 24.413975 0.050945 -4.052736 -2.171526 -0.568515 4.827326 -13.417029 1.780036 -1.725623 7.360456 2.895346 -1.808268 -7.423108 2.473689 -0.867632 -12.138612 2.500663 -0.605822 -4.851241 -5.541005 -1.318252 -10.404352 -2.217422 -0.629877 -2.547355 0.000000 0.000000 0.000000 9.593729 -30.145825 -55.554505 17.111704 -27.004789 4.137934 0.641259 13.130991 -16.925569 0.000000 0.000000 0.000000 -7.125000 0.000000 0.000000 -25.134781 45.281237 0.186505 0.000000 0.000000 0.000000 -13.532012 -25.382778 40.529032 -18.177777 -28.384249 -4.633509 0.261580 34.852956 -7.943343 0.000000 0.000000 0.000000 7.125000 0.000000 0.000000 19.432985 22.135720 11.329640
0.590153 17.755084 -0.797795 0.224872 3.428065 37.298454 0.000000 0.000000 0.000000 -12.690386 -13.133013 -55.567899 2.145053 9.161907 26.303174 0.009969 -3.223418 -2.741429 0.706642 -5.372433 -14.973910 0.000000 0.000000 0.000000 15.214106 7.742598 -56.985419 -1.843902 -8.533050 24.345382 0.048447 -3.927985 -1.923875 -0.593315 4.930963 -13.711934 1.794190 -1.696383 7.511003 2.906238 -1.760792 -7.381719 2.474102 -0.844654 -12.185246 2.528647 -0.661603 -3.852670 -5.143054 -1.365623 -10.812352 -2.095181 -0.646736 -2.860585 0.000000 0.000000 0.000000 9.395519 -30.542070 -55.189210 17.021481 -26.886074 4.097047 0.766091 13.231923 -17.138180 0.000000 0.000000 0.000000 -7.125000 0.000000 0.000000 -25.118899 45.488739 0.323723 0.000000 0.000000 0.000000 -13.404606 -25.862431 39.826544 -17.953664 -28.097804 -4.527381 0.544763 35.258098 -7.669486 0.000000 0.000000 0.000000 7.125000 0.000000 0.000000 19.666587 22.393831 11.358768
0.584517 17.740319 -0.815454 -0.233425 3.646537 37.608799 0.000000 0.000000 0.000000 -11.861674 -13.200758 -56.303480 2.215124 9.300376 26.739645 0.011858 -3.174312 -2.800632 0.675325 -5.254575 -14.636220 0.000000 0.000000 0.000000 15.633145 8.120863 -57.151724 -1.802415 -8.441871 24.064429 0.054917 -4.166371 -1.889221 -0.463629 4.367566 -12.113007 2.147820 -1.648181 7.619285 3.095943 -1.622250 -7.382952 2.463462 -0.797610 -12.264958 2.613956 -0.881167 -1.170267 -5.136350 -1.696556 -12.591049 -2.132268 -0.766433 -3.999869 0.000000 0.000000 0.000000 9.075831 -31.118304 -54.724289 16.802098 -26.596124 3.998361 0.673865 13.579603 -17.425949 0.000000 0.000000 0.000000 -7.125000 0.000000 0.000000 -25.325234 45.737635 0.492927 0.000000 0.000000 0.000000 -13.391943 -26.280782 39.347106 -17.679138 -27.744397 -4.398887 0.355427 35.443794 -7.832842 0.000000 0.000000 0.000000 7.125000 0.000000 0.000000 19.512987 22.240035 11.332339
0.581859 17.740204 -0.822266 -0.188936 3.460084 37.723336 0.000000 0.000000 0.000000 -12.003456 -13.101580 -56.439264 2.210531 9.291482 26.711476 0.012386 -3.113185 -2.789462 0.642583 -5.127484 -14.272802 0.000000 0.000000 0.000000 15.415979 8.330274 -57.257424 -1.798610 -8.433358 24.038254 0.057845 -4.269258 -1.814478 -0.584632 4.894949 -13.609312 1.909781 -1.601565 7.557509 3.079793 -1.597596 -7.306589 2.568164 -0.767019 -12.131662 2.850296 -1.161351 2.987159 -5.472572 -2.197347 -16.067240 -2.062219 -0.899075 -5.405078 0.000000 0.000000 0.000000 8.767115 -31.672671 -53.945614 16.410294 -26.073809 3.824539 0.797527 14.044696 -16.995937 0.000000 0.000000 0.000000 -7.125000 0.000000 0.000000 -25.029954 45.363768 0.240035 0.000000 0.000000 0.000000 -13.257941 -26.501798 38.971760 -17.669300 -27.731621 -4.394300 0.689004 35.593704 -7.687893 0.000000 0.000000 0.000000 7.125000 0.000000 0.000000 19.763672 22.376362 11.430636
0.580314 17.742573 -0.823660 -0.131519 3.325228 37.698131 0.000000 0.000000 0.000000 -12.114186 -13.059849 -56.347877 2.198408 9.267662 26.636272 0.011427 -3.083455 -2.730992 0.678242 -5.265922 -14.668573 0.000000 0.000000 0.000000 15.072079 8.613908 -57.095032 -1.791214 -8.416881 23.987689 0.064512 -4.506565 -1.881975 -0.571120 4.839303 -13.450953 1.858793 -1.508859 7.731195 3.016039 -1.479977 -7.232837 2.509776 -0.708879 -12.156629 3.028762 -1.351255 6.290458 -5.757747 -2.522940 -18.041143 -2.159713 -0.974951 -6.621436 0.000000 0.000000 0.000000 8.428519 -32.189333 -53.514801 16.176482 -25.759395 3.722340 0.771265 14.476876 -17.219672 0.000000 0.000000 0.000000 -7.125000 0.000000 0.000000 -25.149917 45.563112 0.373458 0.000000 0.000000 0.000000 -13.182360 -26.825799 38.717423 -17.626218 -27.675868 -4.374270 0.577464 35.423344 -7.812077 0.000000 0.000000 0.000000 7.125000 0.000000 0.000000 19.669294 22.259564 11.425379
0.577774 17.749973 -0.816008 -0.318288 3.356289 37.648032 0.000000 0.000000 0.000000 -11.829763 -13.056890 -56.243779 2.192812 9.256550 26.601293 0.014278 -2.904103 -2.769896 0.669261 -5.231685 -14.570463 0.000000 0.000000 0.000000 15.029754 8.971722 -56.727678 -1.754666 -8.335144 23.736726 0.074116 -4.830094 -2.033595 -0.432148 4.218676 -11.692666 2.098607 -1.471230 7.705214 3.049427 -1.399231 -7.052797 2.387798 -0.690397 -11.942686 3.083424 -1.424544 7.763987 -5.805649 -2.627006 -18.623943 -2.174838 -0.994297 -7.077123 0.000000 0.000000 0.000000 8.425477 -32.569714 -53.451148 16.226540 -25.826833 3.744073 1.067640 14.363986 -17.024463 0.000000 0.000000 0.000000 -7.125000 0.000000 0.000000 -24.808046 45.422306 0.275921 0.000000 0.000000 0.000000 -13.210064 -27.017900 39.070632 -17.886880 -28.012074 -4.495948 0.771716 34.841981 -7.592575 0.000000 0.000000 0.000000 7.125000 0.000000 0.000000 19.834401 22.465879 11.433196
0.575929 17.757105 -0.800911 -0.099178 3.253168 37.635577 0.000000 0.000000 0.000000 -12.050291 -13.203802 -55.879599 2.136103 9.144006 26.246920 0.015992 -2.678726 -2.744247 0.703393 -5.360365 -14.939405 0.000000 0.000000 0.000000 14.604614 9.094199 -56.679973 -1.769088 -8.367617 23.836479 0.085249 -5.180936 -2.214557 -0.446411 4.284886 -11.879804 1.983509 -1.479989 7.939624 2.970297 -1.423636 -7.116517 2.382873 -0.694536 -12.157373 3.073651 -1.565116 9.763381 -5.649574 -2.819192 -19.898440 -2.108167 -1.053627 -7.862255 0.000000 0.000000 0.000000 8.434155 -32.652475 -53.814255 16.242860 -25.848832 3.751237 0.979031 14.020188 -17.024792 0.000000 0.000000 0.000000 -7.125000 0.000000 0.000000 -24.884933 45.411876 0.269930 0.000000 0.000000 0.000000 -13.104545 -27.035587 39.271365 -17.818186 -27.923726 -4.463757 0.622640 35.230775 -7.921455 0.000000 0.000000 0.000000 7.125000 0.000000 0.000000 19.685396 22.156507 11.485584
